<svg xmlns="http://www.w3.org/2000/svg" viewBox="0 0 254.86 263.5"><defs><style>.cls-1{fill:#fff;}.cls-2{fill:#00b9ef;}.cls-3{fill:none;}.cls-3,.cls-4,.cls-5,.cls-6{stroke:#000;stroke-width:3px;}.cls-3,.cls-4,.cls-6,.cls-7{stroke-linecap:round;}.cls-3,.cls-5,.cls-6{stroke-miterlimit:10;}.cls-4,.cls-5,.cls-8{fill:#ff8f1c;}.cls-4,.cls-7{stroke-linejoin:round;}.cls-6{fill:#999;}.cls-7,.cls-9{fill:#ff6180;}.cls-7{stroke:#ff6180;}</style></defs><title>liveshopping</title><g id="레이어_2" data-name="레이어 2"><g id="레이어_1-2" data-name="레이어 1"><rect class="cls-1" x="1.5" y="63.5" width="251.86" height="171" rx="10.6" ry="10.6"/><path d="M242.76,65a9.11,9.11,0,0,1,9.1,9.1V223.9a9.11,9.11,0,0,1-9.1,9.1H12.1A9.11,9.11,0,0,1,3,223.9V74.1A9.11,9.11,0,0,1,12.1,65H242.76m0-3H12.1A12.1,12.1,0,0,0,0,74.1V223.9A12.1,12.1,0,0,0,12.1,236H242.76a12.1,12.1,0,0,0,12.1-12.1V74.1A12.1,12.1,0,0,0,242.76,62Z"/><path class="cls-2" d="M203.29,203.37v12.06a8.58,8.58,0,0,1-8.58,8.57H19a8.57,8.57,0,0,1-8.57-8.57V82.57A8.57,8.57,0,0,1,19,74H194.71a8.58,8.58,0,0,1,8.58,8.57v98"/><path class="cls-3" d="M85.19,74H194.71a8.58,8.58,0,0,1,8.58,8.57v98"/><line class="cls-3" x1="64.43" y1="74" x2="75.65" y2="74"/><path class="cls-3" d="M203.29,203.37v12.06a8.58,8.58,0,0,1-8.58,8.57H19a8.57,8.57,0,0,1-8.57-8.57V82.57A8.57,8.57,0,0,1,19,74H34.86"/><polygon class="cls-4" points="179.78 235 191 262 194.76 235 179.78 235"/><polygon class="cls-4" points="75.08 235 63.86 262 60.09 235 75.08 235"/><path class="cls-5" d="M102.93,50.5h50a12,12,0,0,1,12,12v1a0,0,0,0,1,0,0h-75a0,0,0,0,1,0,0v0A13,13,0,0,1,102.93,50.5Z"/><line class="cls-3" x1="127.43" y1="50.5" x2="93.36" y2="1.5"/><line class="cls-3" x1="127.43" y1="50.5" x2="161.5" y2="1.5"/><circle class="cls-6" cx="228.36" cy="95.5" r="12"/><circle class="cls-6" cx="228.36" cy="128.5" r="12"/><path class="cls-7" d="M217.78,180.56v-7.4H239v1.58H219.36v5.82Z"/><path class="cls-7" d="M237.33,187.53h-18v1h-1.58v-1h0v-1.61h0v-1h1.58v1h18v-1h1.58v1h0v1.61h0v1h-1.58Z"/><path class="cls-7" d="M238.94,203.37l-21.11-3.8v-2.94l21.11-3.74v1.61L219.42,198v.26l19.52,3.52Z"/><path class="cls-7" d="M237.36,209.27H230v5.3h-1.59v-5.3h-9v6.6h-1.61v-8.18h21.19v8.18h-1.58Z"/><line class="cls-3" x1="217.86" y1="152" x2="237.86" y2="152"/><line class="cls-3" x1="218.36" y1="162.5" x2="238.36" y2="162.5"/><polygon class="cls-1" points="78.41 132.16 69.08 132.16 69.08 168.51 78.41 168.51 78.41 154.71 87.25 154.71 87.25 146.16 78.41 146.16 78.41 132.16"/><polygon class="cls-1" points="139.82 132.16 130.49 132.16 130.49 168.51 139.82 168.51 139.82 154.71 148.67 154.71 148.67 146.16 139.82 146.16 139.82 132.16"/><polygon class="cls-1" points="61.04 173.55 32.96 173.55 32.96 151.97 52.74 151.97 52.74 147.25 33.03 147.25 33.03 138.82 61.17 138.82 61.17 160.4 41.4 160.4 41.4 165.11 61.04 165.11 61.04 173.55"/><path class="cls-1" d="M165.62,173.81a15.13,15.13,0,1,1,15.13-15.13,15.15,15.15,0,0,1-15.13,15.13m0-21.83a6.7,6.7,0,1,0,6.7,6.7,6.71,6.71,0,0,0-6.7-6.7"/><path class="cls-1" d="M114.23,147.53H103v-8.71H93.43v19.56a15.17,15.17,0,1,0,30.33,0V138.82h-9.53Z"/><path class="cls-2" d="M114.91,159a6.32,6.32,0,1,1-6.31-6.32,6.3,6.3,0,0,1,6.31,6.32"/><path class="cls-1" d="M108.6,157a2.08,2.08,0,1,1-2.08-2.08A2.08,2.08,0,0,1,108.6,157"/><polygon class="cls-8" points="169.84 140.78 161.4 140.78 158.42 124.19 172.82 124.19 169.84 140.78"/><path class="cls-1" d="M58,107.79a1,1,0,1,0,0-2H55.29v-2.6a1,1,0,0,0-2,0v2.6H49.18v-2.6a1,1,0,0,0-2,0v2.6H43.07v-2.6a1,1,0,0,0-2,0v2.6h-3.8a1,1,0,1,0,0,2h3.8V112H38.45a1,1,0,0,0,0,2h2.62v4.24a1,1,0,0,0,2,0V114h4.11v4.24a1,1,0,0,0,2,0V114h4.11v4.24a1,1,0,1,0,2,0V114H58a1,1,0,0,0,0-2H55.29v-4.22ZM43.07,112v-4.22h4.11V112Zm10.22,0H49.18v-4.22h4.11Z"/><path class="cls-1" d="M65.86,96.5H63.48a1,1,0,0,0-.82.42l-1.82,2.56a3.12,3.12,0,0,0-1.43-.36H33.9a3.16,3.16,0,0,0-3,4l4,14.74a6.06,6.06,0,0,0,5.49,4.45l-.26.42a2,2,0,1,0,2,1.94,1.92,1.92,0,0,0-.27-1l.84-1.34H56.2l.84,1.34a1.84,1.84,0,0,0-.28,1,2,2,0,1,0,2-1.94l-.24-.39h.86a3.17,3.17,0,0,0,3.16-3.16V102.28a3.19,3.19,0,0,0-.31-1.35L64,98.5h1.87a1,1,0,1,0,0-2Zm-5.29,22.66a1.16,1.16,0,0,1-1.16,1.16H40.67a4.08,4.08,0,0,1-3.92-3l-4-14.74a1.16,1.16,0,0,1,1.12-1.46H59.41a1.16,1.16,0,0,1,1.16,1.16Z"/><path class="cls-9" d="M66.55,109.92v-8.07a1.21,1.21,0,0,1,2.4,0l0,6.9h3.32a1.14,1.14,0,0,1,1.07,1.17,1.12,1.12,0,0,1-1.07,1.16H67.6A1.11,1.11,0,0,1,66.55,109.92Z"/><path class="cls-9" d="M73.93,109.91a1.08,1.08,0,0,1,1-1.11h.83v-5.68h-.83a1.06,1.06,0,0,1-1-1.11,1.08,1.08,0,0,1,1-1.11H79A1.08,1.08,0,0,1,80,102a1.06,1.06,0,0,1-1,1.11h-.85v5.68H79A1.11,1.11,0,0,1,79,111H74.94A1.07,1.07,0,0,1,73.93,109.91Z"/><path class="cls-9" d="M85.24,111.14a1.53,1.53,0,0,1-1.41-.93l-3-7.92a1.13,1.13,0,0,1,.88-1.39,1.11,1.11,0,0,1,1.4.7l2.15,5.5,2.13-5.51a1.14,1.14,0,0,1,1.4-.69,1.13,1.13,0,0,1,.89,1.38l-3,7.93A1.49,1.49,0,0,1,85.24,111.14Z"/><path class="cls-9" d="M90.69,110v-.06l0-8a1,1,0,0,1,1-1.07h5.49a1,1,0,0,1,1,1.07,1,1,0,0,1-1,1H93.09v1.66h2.2a1,1,0,0,1,1,1.07,1,1,0,0,1-1,1h-2.2v2.1h4.09a1,1,0,0,1,1,1.07,1,1,0,0,1-1,1H91.65A1,1,0,0,1,90.69,110Z"/><path class="cls-1" d="M66.21,123.09a1.34,1.34,0,0,1,.07-.4,1.06,1.06,0,0,1,1-.74,1.53,1.53,0,0,1,.66.16,4.72,4.72,0,0,0,2.18.45c1.2,0,1.51-.45,1.51-.86,0-.6-.4-.9-1.51-.9-2.31,0-3.8-1.32-3.8-3.17,0-1.68,1.22-3.13,3.8-3.13a6.37,6.37,0,0,1,3,.68,1.16,1.16,0,0,1,.6,1,1.23,1.23,0,0,1-.11.51,1.08,1.08,0,0,1-1,.67,1.17,1.17,0,0,1-.51-.13,4.18,4.18,0,0,0-2-.47c-.93,0-1.33.42-1.33.85s.36.87,1.34.87c2.53,0,4,1.22,4,3.18,0,1.55-1.1,3.16-3.91,3.16h-.39a7.17,7.17,0,0,1-2.73-.53A1.46,1.46,0,0,1,66.21,123.09Z"/><path class="cls-1" d="M77.49,123.8a1.15,1.15,0,0,1-2.3,0v-8.24a1.16,1.16,0,0,1,2.3,0v2.87H81v-2.87a1.07,1.07,0,0,1,1.13-1,1.09,1.09,0,0,1,1.17,1v8.24a1.1,1.1,0,0,1-1.17,1,1.08,1.08,0,0,1-1.13-1v-3H77.49Z"/><path class="cls-1" d="M88.74,124.91c-2.3,0-4.19-1.39-4.19-3.94v-2.58c0-2.55,1.89-3.93,4.19-3.93a3.89,3.89,0,0,1,4.2,3.93V121A3.9,3.9,0,0,1,88.74,124.91Zm0-8.25a1.81,1.81,0,0,0-1.89,1.81v2.4a1.82,1.82,0,0,0,1.89,1.82,1.85,1.85,0,0,0,1.9-1.83v-2.37A1.84,1.84,0,0,0,88.74,116.66Z"/><path class="cls-1" d="M110.84,117.77a3.11,3.11,0,0,1-3.14,3.1h-2.24v2.94c0,.74-.56,1-1.21,1a1,1,0,0,1-1.1-1.06v-8a1.13,1.13,0,0,1,1.08-1.19h3.47A3.06,3.06,0,0,1,110.84,117.77Zm-2.36,0a.89.89,0,0,0-.91-.9h-2.14v1.77h2.14A.87.87,0,0,0,108.48,117.77Z"/><path class="cls-1" d="M111.59,123.64a1.06,1.06,0,0,1,1-1.11h.83v-5.68h-.83a1.12,1.12,0,0,1,0-2.22h4.08a1.11,1.11,0,0,1,0,2.22h-.85v5.68h.85a1.11,1.11,0,0,1,0,2.22h-4.08A1.06,1.06,0,0,1,111.59,123.64Z"/><path class="cls-1" d="M119.86,114.52a1.13,1.13,0,0,1,1,.44l4,5.16v-4.56a1.07,1.07,0,0,1,1.13-1,1.09,1.09,0,0,1,1.17,1v8.24a1.19,1.19,0,0,1-2.11.6l-4-5.17v4.57a1.15,1.15,0,0,1-2.3,0v-8.24A1.07,1.07,0,0,1,119.86,114.52Z"/><path class="cls-1" d="M132.78,122.71a2.28,2.28,0,0,0,1.31-.33v-1.86h-.39a1.06,1.06,0,1,1,0-2.11h1.62a1,1,0,0,1,1.07,1.07V123a1,1,0,0,1-.3.73,5,5,0,0,1-3.36,1.09,4.33,4.33,0,0,1-4.42-4.08V118.6a4.33,4.33,0,0,1,4.42-4.08,5.45,5.45,0,0,1,2.66.65,1.13,1.13,0,0,1,.68,1,1.63,1.63,0,0,1-.09.48,1,1,0,0,1-.93.65,1.6,1.6,0,0,1-.47-.11,3.76,3.76,0,0,0-1.8-.56,2.14,2.14,0,0,0-2.17,2v2.1A2.13,2.13,0,0,0,132.78,122.71Z"/><path class="cls-1" d="M101.84,117.77a3.11,3.11,0,0,1-3.14,3.1H96.46v2.94c0,.74-.56,1-1.21,1a1,1,0,0,1-1.1-1.06v-8a1.13,1.13,0,0,1,1.08-1.19H98.7A3.06,3.06,0,0,1,101.84,117.77Zm-2.36,0a.89.89,0,0,0-.91-.9H96.43v1.77h2.14A.87.87,0,0,0,99.48,117.77Z"/></g></g></svg>